# xmcd
#
# Track frame offsets:
#	150
#	7067
#	24792
#	44070
#	60542
#	64345
#	80617
#	98107
#	113540
#	119725
#	135192
#	152430
#	170355
#	175880
#	192762
#	208272
#	225767
#
# Disc length: 3035 seconds
#
# Revision: 4
# Processed by: cddbd v1.5.1PL0 Copyright (c) Steve Scherf et al.
# Submitted via: audiograbber 1.83.01
#
DISCID=d70bd911
DTITLE=Quad Force - The Ultimate Bass Challenge
DYEAR=1993
DGENRE=Bass
TTITLE0=This Is The Challenge
TTITLE1=Phantom Bass
TTITLE2=Feel That Quad
TTITLE3=Can You Stand The Bass?
TTITLE4=Follow The Bouncing Bass
TTITLE5=Bass In Yo Face
TTITLE6=Why Is The Bass So Strong?
TTITLE7=Bass Generator
TTITLE8=The Tweeter Terror-Upper
TTITLE9=Bass Creator
TTITLE10=Q.F. II
TTITLE11=Boomin' Down The Stroll
TTITLE12=Stereo Bass (Where Is It?)
TTITLE13=My Bass Hertz
TTITLE14=Oriantal Bass
TTITLE15=Bass In The Musik
TTITLE16=Bass Conclusion
EXTD=Attitude Records\nYear 1993\n
EXTT0=
EXTT1=
EXTT2=
EXTT3=
EXTT4=
EXTT5=
EXTT6=
EXTT7=
EXTT8=
EXTT9=
EXTT10=
EXTT11=
EXTT12=
EXTT13=
EXTT14=
EXTT15=
EXTT16=
PLAYORDER=
